<svg id="SvgjsSvg1001" width="288" height="288" xmlns="http://www.w3.org/2000/svg" version="1.1" xmlns:xlink="http://www.w3.org/1999/xlink" xmlns:svgjs="http://svgjs.com/svgjs"><defs id="SvgjsDefs1002"></defs><g id="SvgjsG1008" transform="matrix(0.9167,0,0,0.9167,11.995200000000011,11.995200476646431)"><svg xmlns="http://www.w3.org/2000/svg" enable-background="new 0 0 60 60" viewBox="0 0 60 60" width="288" height="288"><path d="M30 11c.553 0 1-.447 1-1V4c0-.553-.447-1-1-1s-1 .447-1 1v6C29 10.553 29.447 11 30 11zM52 33c0 .553.447 1 1 1h6c.553 0 1-.447 1-1s-.447-1-1-1h-6C52.447 32 52 32.447 52 33zM1 34h6c.553 0 1-.447 1-1s-.447-1-1-1H1c-.553 0-1 .447-1 1S.447 34 1 34zM46.264 17.736c.256 0 .512-.098.707-.293l5.736-5.736c.391-.391.391-1.023 0-1.414s-1.023-.391-1.414 0l-5.736 5.736c-.391.391-.391 1.023 0 1.414C45.752 17.639 46.008 17.736 46.264 17.736zM13.029 17.443c.195.195.451.293.707.293s.512-.098.707-.293c.391-.391.391-1.023 0-1.414l-5.736-5.736c-.391-.391-1.023-.391-1.414 0s-.391 1.023 0 1.414L13.029 17.443zM50.251 24.404c.162.381.532.609.921.609.131 0 .264-.025.391-.079l2.762-1.173c.509-.217.746-.804.53-1.312-.217-.509-.808-.743-1.312-.53l-2.762 1.173C50.272 23.31 50.035 23.896 50.251 24.404zM5.519 24.187L8.3 25.311c.123.05.25.073.375.073.396 0 .77-.236.927-.625.207-.513-.04-1.095-.552-1.302l-2.781-1.124c-.512-.207-1.095.041-1.302.552C4.76 23.397 5.007 23.979 5.519 24.187zM20.093 12.219c.162.381.532.609.921.609.131 0 .264-.025.391-.079.509-.217.746-.804.53-1.312l-1.173-2.762c-.217-.509-.809-.744-1.312-.53-.509.217-.746.804-.53 1.312L20.093 12.219zM38.241 12.602c.123.05.25.073.375.073.396 0 .77-.236.927-.625l1.124-2.781c.207-.513-.04-1.095-.552-1.302-.513-.206-1.095.04-1.302.552L37.689 11.3C37.482 11.813 37.729 12.395 38.241 12.602z" fill="#fdfdfd" class="color000 svgShape"></path><path d="M59 40h-9.23c.802-2.252 1.23-4.596 1.23-7 0-11.579-9.421-21-21-21S9 21.421 9 33c0 2.404.428 4.748 1.23 7H1c-.553 0-1 .447-1 1s.447 1 1 1h10.021 37.957H59c.553 0 1-.447 1-1S59.553 40 59 40zM12.342 40C11.451 37.763 11 35.411 11 33c0-10.477 8.523-19 19-19s19 8.523 19 19c0 2.411-.451 4.763-1.342 7H12.342zM54 45H6c-.553 0-1 .447-1 1s.447 1 1 1h48c.553 0 1-.447 1-1S54.553 45 54 45zM49 50H11c-.553 0-1 .447-1 1s.447 1 1 1h38c.553 0 1-.447 1-1S49.553 50 49 50zM45 55H15c-.553 0-1 .447-1 1s.447 1 1 1h30c.553 0 1-.447 1-1S45.553 55 45 55z" fill="#fdfdfd" class="color000 svgShape"></path><polygon points="31 32.586 31 21 29 21 29 32.586 23.707 27.293 22.293 28.707 30 36.414 37.707 28.707 36.293 27.293" fill="#fdfdfd" class="color000 svgShape"></polygon></svg></g></svg>